<svg xmlns="http://www.w3.org/2000/svg" width="200" height="200"><path fill="#FFF" fill-rule="evenodd" d="M84.107 75.956v7.386c.266-.206.388-.259.442-.351.178-.303.34-.616.494-.932 1.276-2.613 3.354-3.693 6.258-3.686 2.89.009 4.885 1.277 5.986 3.801.594 1.36.957 2.923.99 4.405.116 5.294-.01 10.592.07 15.887.04 2.615-.91 4.421-3.417 5.33-.34.123-.62.407-1.242.832h15.124c-.532-.401-.726-.639-.97-.718-2.955-.952-3.771-3.088-3.725-6.017.111-7.119.034-14.24.04-21.36 0-.62.052-1.242.084-1.951 3.12 0 6.062-.16 8.969.083 1.078.09 2.214.977 3.074 1.773.81.75 1.29 1.858 2.12 3.117v-7.599H84.107zm71.07 33.366c.05-.91.105-1.467.107-2.022.009-3.12.033-6.24-.005-9.358-.026-2.248.891-3.835 2.982-4.725.467-.199.894-.493 1.739-.968h-14.655c.612.397.816.56 1.046.673 3.414 1.68 4.17 3.297 3.225 6.93-1.694 6.514-10.405 9.38-16.08 5.165-5.235-3.889-6.65-9.458-5.746-15.556.78-5.26 3.315-9.613 8.754-11.372 5.228-1.69 11.515 1.11 14.786 6.35.307.492.632.973 1.163 1.79V75.09c-1.962 2.344-4.092 1.51-6.229 1.128-2.863-.513-5.813-1.446-8.623-1.165-7.41.74-12.5 4.972-14.729 12.086-2.187 6.982-.422 13.268 5.015 18.119 5.559 4.958 12.002 5.758 18.866 2.775 1.022-.444 2.044-.896 3.094-1.266 1.687-.594 3.118-.178 4.235 1.243.272.347.552.687 1.054 1.313zM40.302 76.274c4.302 1.132 4.506 4.306 4.427 7.847-.136 6.117-.086 12.24-.014 18.36.031 2.613-.915 4.419-3.434 5.31-.34.12-.623.406-1.235.82h11.648c-.168-.27-.206-.396-.292-.456-.19-.135-.393-.272-.61-.347-2.607-.891-3.568-2.758-3.492-5.444.101-3.588.025-7.18.025-10.769v-7.824c.57.447.81.95 1.02 1.467 2.966 7.293 5.93 14.585 8.885 21.883.379.937.648 1.732 2.016 1.727 1.383-.005 1.638-.86 2.007-1.77 2.866-7.08 5.725-14.162 8.59-21.24.248-.611.521-1.211.783-1.816.346 6.107.245 12.103.39 18.093.07 2.927-.915 4.881-3.713 5.844-.227.078-.405.297-.864.648h14.448c-.446-.366-.598-.58-.797-.64-3.139-.972-3.905-3.251-3.836-6.296.135-5.823-.014-11.652.063-17.477.039-2.827-.84-5.914 2.142-8.129-5.05-.708-7.047.296-9.166 4.413-.188.366-.363.74-.517 1.12-2.422 5.925-4.838 11.85-7.26 17.774-.225.549-.49 1.08-.87 1.914-.58-1.42-.99-2.452-1.42-3.475-2.245-5.362-4.287-10.822-6.804-16.054-2.431-5.052-6.356-6.699-12.12-5.483zm113.959 47.108c-.213 0-.449-.034-.852-.18a1.217 1.217 0 0 0-.36-.089c-.224 0-.526.169-.717.27l-.673-1.809.303-.135c.269.472.415.663.706.922.494.426 1.02.63 1.492.63.628 0 1.121-.417 1.121-1.068 0-.72-.594-.888-1.648-1.168-1.11-.304-1.839-.63-1.839-1.562 0-.629.381-1.55 1.58-1.55.27 0 .438.033.73.135.247.078.313.078.37.078.19 0 .37-.09.538-.213l.684 1.628-.224.102c-.415-.528-1.121-1.427-2.04-1.427-.54 0-1.044.427-1.044 1.056 0 .663.617.81 1.648 1.067.83.202 1.908.528 1.908 1.696 0 1.034-.797 1.617-1.683 1.617zm-5.64-.212v-.36h.257c.493 0 .639-.326.639-.82v-2.752c0-.662-.336-1.078-1.009-1.078-.898 0-1.48.696-1.75 1.033v2.797c0 .438.134.82.685.82h.258v.36h-2.513v-.36h.247c.493 0 .64-.326.64-.82v-2.673c0-.765-.293-1.157-1.077-1.157-.83 0-1.301.505-1.593.82v3.01c0 .438.146.82.685.82h.179v.36h-2.377v-.36h.202c.493 0 .627-.337.627-.82v-3.258c0-.224-.146-.505-.414-.505-.023 0-.158 0-.326.045l-.055-.236 1.48-.438v.954c.46-.404 1.02-.909 1.872-.909.482 0 1.245.18 1.413 1.123.47-.482 1.077-1.123 1.963-1.123.942 0 1.536.629 1.536 1.64v2.707c0 .573.18.82.56.82h.27v.36h-2.4zm-8.715-2.943c-.66.156-1.333.324-1.984.864-.337.281-.662.674-.662 1.056 0 .393.348.775.942.775.18 0 .908-.056 1.704-.876v-1.82zm.74 3.155c-.706 0-.74-.684-.74-.954-.706.607-1.154.954-1.906.954-1.031 0-1.536-.538-1.536-1.201 0-.708.594-1.158.718-1.247.718-.517 1.334-.719 2.724-1.044v-.742c0-.27-.055-.618-.301-.854-.281-.27-.663-.314-.91-.314-.481 0-.93.213-.998.708-.022.213-.078.64-.526.64a.501.501 0 0 1-.505-.495c0-.685 1.02-1.19 2.108-1.19.953 0 1.805.292 1.805 1.348v3.313c0 .394.202.54.494.54.236 0 .292-.09.382-.225l.112.079c-.247.516-.595.684-.92.684zm-7.479-5.402c-1.267 0-1.458 1.36-1.537 1.876h2.994c-.078-1.45-.773-1.876-1.457-1.876zm.134 5.402c-2.097 0-2.5-1.887-2.5-2.863 0-1.438.762-2.876 2.388-2.876.987 0 1.514.539 1.805.988.415.64.46 1.214.494 1.596h-3.88c-.078 2.684 1.716 2.73 1.929 2.73.975 0 1.49-.686 1.749-1.046l.258.214c-.415.539-.965 1.257-2.243 1.257zm-3.689-4.65a.46.46 0 0 1-.325-.123c-.123-.113-.157-.157-.337-.157-.718 0-1.132.617-1.536 1.37v2.168c0 .562.347.82.785.82h.37v.36h-2.848v-.36h.258c.426 0 .784-.247.784-.82V118.9c0-.303-.09-.607-.46-.607-.156 0-.358.056-.482.09l-.078-.246 1.671-.552v1.584c.449-.572 1.211-1.527 2.063-1.527.258 0 .651.169.651.573a.515.515 0 0 1-.516.516zm-6.055.45c-.158-.27-.629-1.056-1.526-1.056-1.099 0-1.648 1.303-1.648 2.46 0 1.494.84 2.224 1.637 2.224.235 0 .45-.068.56-.112.539-.203.763-.484.977-.741v-2.775zm0 3.988v-.697c-.315.303-.83.82-1.716.82-1.144 0-2.22-.932-2.22-2.696 0-1.673.952-2.954 2.287-2.954.358 0 1.099.124 1.649.887v-2.37c0-.45-.225-.662-.55-.662-.202 0-.527.079-.628.1l-.08-.247 1.907-.572v7.323c0 .393.146.708.674.708h.212v.36h-1.535zm-9.443-4.246l-1.794 4.56c-.382.977-.83 1.516-1.828 1.516-.19 0-.763-.01-.763-.505 0-.247.19-.46.449-.46.19 0 .336.11.504.257.067.057.157.136.37.136s.55.01.965-1.146l.055-.158-1.749-4.19c-.291-.707-.639-.718-.908-.718v-.36h2.377v.36h-.302c-.258 0-.538.078-.538.382 0 .168.078.36.112.437l1.357 3.202 1.233-3.202c.067-.179.112-.313.112-.437 0-.191-.101-.382-.64-.382h-.212v-.36h2.254v.36c-.291 0-.774.01-1.054.708zm-7.603 4.246v-.36h.28c.504 0 .64-.337.64-.82v-2.55c0-.528-.158-1.28-1.033-1.28-.785 0-1.435.696-1.749 1.044v2.786c0 .45.134.82.662.82h.292v.36h-2.457v-.36h.214c.493 0 .627-.337.627-.82v-3.258c0-.224-.146-.505-.414-.505-.024 0-.158 0-.325.045l-.057-.236 1.458-.438v1.134c.56-.561 1.11-1.089 1.94-1.089.942 0 1.491.64 1.491 1.64v2.707c0 .505.112.82.595.82h.291v.36h-2.455zm-5.238-2.943c-.661.156-1.334.324-1.984.864-.337.281-.662.674-.662 1.056 0 .393.348.775.942.775.18 0 .909-.056 1.704-.876v-1.82zm.741 3.155c-.707 0-.74-.684-.74-.954-.707.607-1.155.954-1.906.954-1.032 0-1.537-.538-1.537-1.201 0-.708.594-1.158.718-1.247.717-.517 1.334-.719 2.724-1.044v-.742c0-.27-.055-.618-.302-.854-.28-.27-.662-.314-.909-.314-.482 0-.93.213-.998.708-.021.213-.078.64-.526.64a.501.501 0 0 1-.505-.495c0-.685 1.02-1.19 2.108-1.19.953 0 1.805.292 1.805 1.348v3.313c0 .394.202.54.494.54.236 0 .291-.09.38-.225l.113.079c-.246.516-.594.684-.919.684zm-7.39-.212v-.36h.257c.494 0 .64-.326.64-.82v-2.752c0-.662-.337-1.078-1.01-1.078-.897 0-1.48.696-1.75 1.033v2.797c0 .438.136.82.685.82h.257v.36h-2.511v-.36h.247c.493 0 .64-.326.64-.82v-2.673c0-.765-.293-1.157-1.078-1.157-.829 0-1.3.505-1.591.82v3.01c0 .438.145.82.683.82h.18v.36h-2.378v-.36h.202c.493 0 .628-.337.628-.82v-3.258c0-.224-.146-.505-.415-.505-.023 0-.157 0-.325.045l-.057-.236 1.482-.438v.954c.459-.404 1.02-.909 1.872-.909.482 0 1.244.18 1.413 1.123.471-.482 1.076-1.123 1.962-1.123.942 0 1.537.629 1.537 1.64v2.707c0 .573.179.82.56.82h.27v.36h-2.4zm-13.58-5.19c-1.268 0-1.459 1.36-1.538 1.876h2.995c-.079-1.45-.774-1.876-1.458-1.876zm.134 5.402c-2.098 0-2.501-1.887-2.501-2.863 0-1.438.762-2.876 2.388-2.876.988 0 1.514.539 1.806.988.415.64.46 1.214.493 1.596h-3.88c-.078 2.684 1.717 2.73 1.93 2.73.974 0 1.49-.686 1.749-1.046l.257.214c-.415.539-.964 1.257-2.242 1.257zm-4.05-4.48l-1.86 4.48h-.18l-2.142-4.705c-.201-.45-.359-.461-.706-.461v-.36h2.075v.36h-.27c-.201 0-.358.112-.358.326 0 .135.033.224.112.404l1.525 3.37 1.323-3.28c.045-.102.112-.314.112-.45 0-.292-.201-.37-.46-.37h-.168v-.36h1.862v.36c-.348.01-.605.068-.864.685zm-6.795 1.325c-.661.156-1.334.324-1.984.864-.337.281-.662.674-.662 1.056 0 .393.348.775.942.775.18 0 .909-.056 1.704-.876v-1.82zm.74 3.155c-.706 0-.74-.684-.74-.954-.706.607-1.154.954-1.905.954-1.032 0-1.537-.538-1.537-1.201 0-.708.594-1.158.717-1.247.718-.517 1.335-.719 2.725-1.044v-.742c0-.27-.055-.618-.302-.854-.281-.27-.663-.314-.909-.314-.482 0-.93.213-.998.708-.022.213-.079.64-.527.64a.501.501 0 0 1-.505-.495c0-.685 1.021-1.19 2.109-1.19.953 0 1.805.292 1.805 1.348v3.313c0 .394.202.54.494.54.235 0 .291-.09.38-.225l.113.079c-.246.516-.595.684-.92.684zm-7.356-.212v-.36h.292c.504 0 .639-.337.639-.82v-2.438c0-.673-.202-1.426-1.02-1.426-.898 0-1.481.775-1.717 1.078v2.786c0 .45.158.82.684.82h.202v.36h-2.343v-.36h.18c.492 0 .627-.337.627-.82v-6.156c0-.303-.09-.483-.348-.483-.112 0-.27.023-.426.068l-.055-.247 1.48-.404v3.998c.37-.426.963-1.123 1.961-1.123 1.168 0 1.425.899 1.425 1.651v2.696c0 .438.134.82.684.82h.157v.36h-2.422zm-10.093-5.19c-1.267 0-1.457 1.36-1.536 1.876h2.995c-.08-1.45-.775-1.876-1.459-1.876zm.135 5.402c-2.097 0-2.5-1.887-2.5-2.863 0-1.438.762-2.876 2.388-2.876.986 0 1.514.539 1.805.988.415.64.46 1.214.493 1.596h-3.88c-.078 2.684 1.716 2.73 1.93 2.73.975 0 1.491-.686 1.748-1.046l.259.214c-.416.539-.965 1.257-2.243 1.257zm-3.634-8.041c-.639 0-.852.56-.975 1.055l-1.817 6.986h-.202l-1.839-6.379-1.985 6.38h-.18l-1.906-7.132c-.146-.528-.46-.91-.998-.91H40v-.371h2.837v.37h-.292c-.335 0-.627.169-.627.506 0 .033 0 .247.056.45l1.457 5.48 1.682-5.402-.1-.349c-.113-.381-.36-.684-.797-.684h-.358v-.371h2.848v.37h-.315c-.425 0-.616.191-.616.528 0 .123.034.247.068.37l1.558 5.437 1.38-5.245a3.22 3.22 0 0 0 .078-.551c0-.336-.292-.538-.572-.538h-.448v-.371h2.602v.37h-.315z"/></svg>